<?xml version="1.0" encoding="UTF-8" standalone="no"?>
<svg xmlns="http://www.w3.org/2000/svg" xml:space="preserve" width="18" height="18" version="1.0" viewBox="0 0 15.593 15.818">
  <path d="M7.6056064 14.2362c-1.0952 0-2.1568-.0816-2.2024-.084l-.26-.0192-.088-.2512c-.0168-.0472-.4072-1.1264-1.7632-1.3224-1.064-.1528-1.5544-.3584-1.696-.7128-.0496-.1272-.0448-.2464-.012-.3432.0528-.4192.4448-2.5552 3.0152-5.064.0712-.28.2704-.9152.6968-1.304.0176-.524.1416-1.848.8904-2.4736.1816-.1512.3984-.2304.6288-.2304.764 0 1.5328.8728 1.8704 1.3112.2272-.0312.5664-.0744.8384-.092.2088-.5568.7967996-1.7144 2.1383996-2.0168l.2272-.052.1568.1728c.0376.0408.3504.4136.1216 1.0312-.1144.3096-.4352 1.1312-.588 1.5192.2472.3376.5456.7936.6552 1.1464.3968.2848.876.8232.7688 1.4488l.352.2176c.2784.1072.6768.5216.5144 1.1496.1072.3176.3008 1.0696.008 1.7176-.176.3864-.504.6704-.9488.8176-.0272.0176-.6944.328-1.2712.328-.0608 0-.12-.004-.176-.0104-.5232.4904-1.1384 1.0128-1.6183996 1.2664.0832.3456.1352.8496-.1056 1.2512-.1384.2264-.4232.5104-1.0064.5576-.3512.0304-.7496.0408-1.1464.0408z"/>
  <path fill="#f5c669" d="M1.9752064 11.6058s.172-2.256 2.9864-4.9632c0 0 .1928-.9664.7304-1.3104 0 0-.0216-1.7184.7512-2.3632.7728-.6448 2.0624 1.2032 2.0624 1.2032s.9896-.1504 1.3112-.1288c0 0 .4087996-1.676 1.9335996-2.02 0 0 .1936.2152.0432.6232-.1504.408-.6664 1.7184-.6664 1.7184s.752.988.752 1.332c0 0 1.0528.6232.6448 1.3752l.6224.3864s.5368.2144.3008.8168c0 0 .7096 1.6976-.6448 2.1488 0 0-.9448.4512-1.4392.2576 0 0-1.5479996 1.4832-1.9983996 1.4608 0 0 .6655996 1.5464-.6448 1.6536-1.3104.108-3.2864-.0432-3.2864-.0432s-.4512-1.3536-2.084-1.5896-1.3744-.5576-1.3744-.5576z"/>
  <path d="m4.9824064 7.5666-.3008.1288c-.3864 5.2432 4.2328 4.0608 4.2328 4.0608l-.0216-.344c-4.8128.6448-3.9104-3.8456-3.9104-3.8456zm8.0999996 1.268-.2368.0208v.4296c.0208.8816-1.9544.7096-1.9544.7096v.236c1.9768.1928 2.0832-.516 2.0832-.516l.1504.1504.1504-.0856v-.1288c-.3 0-.1928-.816-.1928-.816zm.012-1.1848-.0496-.0704-.0824.0232-.6008.1712-.0968.028.0096.0992c.056.5592.4168.5592.7656.5592.1576 0 .2256-.0824.2504-.132.1104-.208-.1216-.5728-.196-.6784zm-.8536-.7184.0832.0184.0448-.0712c.2368-.3656-.1816-.788-.4648-.9792l-.1672-.1136-.02.2008-.0432.4624c-.0008.344.5096.4696.5672.4824zm-2.2312-.568c-.9239996 0-.9455996.8168-.9455996.8168.1288.4728 1.3111996.4944 1.3111996.4944l.4728-.7736c0-.0008.0864-.5376-.8384-.5376zm-3.2959996.604c.0312-1.2744.224-1.4456.3784-1.584.0736-.0656.156-.1384.216-.2864.0456-.1168.2712-.1336.4024-.1336.3864 0 .8656.1384.8696.14l.2832.0824-.1448-.256c-.0088-.0152-1.0624-1.548-1.7368-1.548-.132 0-.3096.0544-.4128.316-.5416 1.3664-.1104 3.216-.092 3.2944l.2368-.0248z"/>
</svg>