<?xml version="1.0" encoding="UTF-8" standalone="no"?>
<svg xmlns="http://www.w3.org/2000/svg" xml:space="preserve" width="18" height="18" version="1.0" viewBox="0 0 15.593 15.818">
  <path d="M7.9871936 14.2362c1.0952 0 2.1568004-.0816 2.2024004-.084l.26-.0192.0872-.2504c.0168-.0472.4072-1.1264 1.7632-1.3224 1.064-.1528 1.5544-.3584 1.696-.7128.0496-.1272.0448-.2464.012-.3432-.052-.4192-.4448-2.5552-3.0152-5.0648-.0712-.28-.2704-.9152-.6968-1.304-.0176-.524-.1416-1.848-.8904004-2.4736-.1808-.1512-.3976-.2304-.6288-.2304-.764 0-1.5328.8728-1.8704 1.3112-.2272-.0312-.5656-.0744-.8376-.0928-.2088-.556-.7968-1.7136-2.1384-2.0168l-.2272-.0512-.1576.1728c-.0368.0416-.3496.4136-.1216 1.0312.1144.3096.4352 1.1312.588 1.5192-.2464.3376-.5448.7936-.6552 1.1464-.3968.2848-.876.8232-.7688 1.4488l-.352.2176c-.2784.1072-.6768.5216-.5144 1.1488-.1072.3176-.3008 1.0696-.008 1.7176.176.3864.504.6704.9488.8176.0272.0176.6944.328 1.2712.328.0608 0 .12-.004.176-.0104.5232.4904 1.1384 1.0128 1.6184 1.2664-.0832.3456-.1352.8496.1056 1.2512.1384.2264.4232.5104 1.0064.5576.352.0312.7504.0416 1.1472.0416z"/>
  <path fill="#b2bac2" d="M13.617594 11.6058s-.172-2.256-2.9864-4.9632c0 0-.1928-.9664-.7304004-1.3104 0 0 .0216-1.7184-.7512-2.3632-.7728-.6448-2.0632 1.2032-2.0632 1.2032s-.9888-.1504-1.3104-.1288c0 0-.4088-1.676-1.9336-2.02 0 0-.1936.2152-.0432.6232.1504.408.6664 1.7184.6664 1.7184s-.752.988-.752 1.332c0 0-1.0528.6232-.6448 1.3752l-.6232.3872s-.5368.2144-.3008.8168c0 0-.7096 1.6976.6448 2.1488 0 0 .9448.4512 1.4392.2576 0 0 1.548 1.4832 1.9984 1.4608 0 0-.6656 1.5464.6448 1.6536 1.3104.108 3.2864004-.0432 3.2864004-.0432s.4512-1.3536 2.084-1.5896 1.3752-.5584 1.3752-.5584z"/>
  <path d="m6.6999936 11.413-.0216.344s4.6192004 1.1824 4.2328004-4.0608l-.3008-.1288c-.0008-.0008.9016 4.4896-3.9104004 3.8456zm-4.3832-1.7624v.1288l.1504.0856.1504-.1504s.1072.7088 2.0832.516v-.236s-1.976.172-1.9544-.7096v-.4296l-.2368-.0208s.108.816-.1928.816zm.8808-1.7616-.6016-.172s-.4296.6232-.0432.6232c.3864 0 .6016-.0216.6448-.4512zm.6016-1.44-.0432-.4504s-.6664.4512-.4296.8168c0-.0008.4728-.108.4728-.3664zm.9448.4512.4728.7736s1.1824-.0216 1.3112-.4944c0 0-.0208-.8168-.9456-.8168s-.8384.5376-.8384.5376zm4.2544.0648s.4472-1.8752-.0856-3.2224c-.3648-.924-1.848 1.096-1.9336 1.2464 0 0 1.2464-.3656 1.4184.0648.1712.4288.5576.0632.6008 1.9112z"/>
</svg>